<svg xmlns="http://www.w3.org/2000/svg" viewBox="0 0 370.32 732.04"><defs><style>.cls-1{fill:#5661ae;}.cls-2{fill:#bc775c;}.cls-3{fill:#93523e;}.cls-3,.cls-9{stroke:#93523e;}.cls-4{fill:#1c85e8;}.cls-5{fill:#fff;}.cls-6{fill:#1f2d49;}.cls-7{fill:#0d1b33;}.cls-8{fill:#465393;}.cls-9{fill:none;stroke-linecap:round;stroke-width:1.08px;}.cls-10{fill:#493212;}.cls-11{fill:#080b09;}</style></defs><g id="Layer_2" data-name="Layer 2"><g id="Layer_1-2" data-name="Layer 1"><path class="cls-1" d="M368.82,660.34l-50.69,67.39a7.5,7.5,0,0,1-10.49,1.48l-4.7-3.54,59.69-79.35,4.71,3.54a7.48,7.48,0,0,1,1.48,10.48Z"/><path class="cls-2" d="M321,620.88l18.28,14.86-18.57,28.65-20.6-15.73Z"/><path class="cls-3" d="M329.12,628.12,306.36,653l-5.54-4.37,21.32-26.19Z"/><path class="cls-4" d="M336.83,633.9s-5.13,18-22,27.29l-15.27,59.7c.48,3.43,4.31,5.63,6.86,6.44a2.77,2.77,0,0,0,1.71,0,2.82,2.82,0,0,0,1.4-1l54.19-72a5.75,5.75,0,0,0-1.05-8c-4.74-3.71-12-9.31-15.15-11.23C342.62,632.12,339.15,631.43,336.83,633.9Z"/><path class="cls-5" d="M311.25,673.57l8.69-1.87a2.08,2.08,0,0,1,1,0,1.93,1.93,0,0,1,.83.48,1.87,1.87,0,0,1,.51.81,2,2,0,0,1,.07,1,2,2,0,0,1-.53,1,2,2,0,0,1-1,.56l-10.67,2.16Z"/><path class="cls-5" d="M309.2,683l8.65-1.89a2,2,0,0,1,2.3,1.33,2,2,0,0,1,.06,1,2,2,0,0,1-1.55,1.59l-10.52,2.18Z"/><path class="cls-5" d="M306.57,693.33l8.54-1.91a2,2,0,0,1,1,0,2,2,0,0,1,1.34,1.29,2,2,0,0,1,.07,1,2.07,2.07,0,0,1-.53,1,2.05,2.05,0,0,1-1,.56l-10.39,2.09Z"/><path class="cls-6" d="M147.29,542.35,292,658.91l33-38.46L198.47,501.78Z"/><path class="cls-7" d="M224.88,526.56v78.31l67.08,54,9.63-60.39Z"/><path class="cls-6" d="M160.13,328.07,136.35,517.7h66.48L260.59,329Z"/><path class="cls-7" d="M217.21,470.73l11.17-94.08h27.46Z"/><path class="cls-1" d="M276.9,732H192.57a7.49,7.49,0,0,1-7.49-7.49v-5.89h99.31v5.89A7.49,7.49,0,0,1,276.9,732Z"/><path class="cls-2" d="M279.69,670.11l-.89,23.53L244.75,696l.18-25.92Z"/><path class="cls-3" d="M278.78,681l-33.52-3.27.16-7,33.75,1.29Z"/><path class="cls-4" d="M278.8,690.58s-17.51,6.74-35.06-1.21l-56.89,23.68c-2.45,2.45-1.9,6.83-1,9.36a2.88,2.88,0,0,0,1,1.37,2.75,2.75,0,0,0,1.64.51h90.14a5.75,5.75,0,0,0,5.75-5.63c.11-6,.22-15.18-.14-18.85C283.7,694.14,282.17,691,278.8,690.58Z"/><path class="cls-5" d="M231.72,694l6.72,5.82a2,2,0,0,1,.55.79,2,2,0,0,1,.11.95,1.8,1.8,0,0,1-.34.89,1.89,1.89,0,0,1-.72.63,2,2,0,0,1-2.22-.28l-8.13-7.23Z"/><path class="cls-5" d="M222.93,698l6.7,5.78a1.83,1.83,0,0,1,.55.79,1.93,1.93,0,0,1,.12.95,2,2,0,0,1-1.07,1.52,2,2,0,0,1-1.15.2,2,2,0,0,1-1.06-.48l-8.07-7.1Z"/><path class="cls-5" d="M213.12,702.12l6.66,5.68a2.17,2.17,0,0,1,.55.79,1.93,1.93,0,0,1,.12.95,2,2,0,0,1-.35.9,1.88,1.88,0,0,1-.72.62,2,2,0,0,1-1.15.2,2,2,0,0,1-1.06-.48l-7.93-7Z"/><path class="cls-6" d="M300.92,329a257.45,257.45,0,0,0,0,28.87c2.21,31.08-4.85,121.85-4.8,133.8s-7.81,180.18-7.81,180.18h-47.8S228.29,527.3,228,510.75s-3.13-181-3.13-181Z"/><path class="cls-7" d="M158.69,339.56,300.92,357.9V329l-141.5,4.65Z"/><path class="cls-6" d="M169.59,551a33.25,33.25,0,1,0-33.24-33.25A33.25,33.25,0,0,0,169.59,551Z"/><path class="cls-2" d="M268.53,350s-6.38,12.08-7.94,13.46-27.24,4.55-32.21,6.33-7.35,4.48-7.35,6.89H281.4s1.56-1.45,2.68-6.09,3.1-6.61,3.1-6.61Z"/><path class="cls-1" d="M181.77,159.78c4-19.6-5.37-19.1-8.47-22.21,0,0-11.66-9.62-20.54-.66-9.4,9.48-63.29,83.1-63.29,83.1l33.72,31,6.34-7.56,16.41-19.58L163.5,203l2.19-2.38,23.68-26.83S179.52,170.09,181.77,159.78Z"/><path class="cls-1" d="M195.87,163.12a25.91,25.91,0,1,0-32.8,16.34A25.92,25.92,0,0,0,195.87,163.12Z"/><path class="cls-8" d="M165.37,200.47c.68-4.1,2-12.29,3.51-19.76l7.78-36.14s-20.9,30.88-30.52,52.39c-7.13,16.12-15.4,32.55-16.77,46.45l16.42-19.58,17.56-20.93Z"/><path class="cls-2" d="M55.79,137.13c-8-14.62-4.16-17.1-7.57-25.41-3.36-8.11,2.61-28.23-3.1-25.49s-7.48,10-7.48,10c-3.9-6.91-7.5-19.62-16.84-21.07S10.63,76.69,5.33,81c-14.09,11.73,3.88,29.35,6.88,36.06,1.93,4.21,16.1,17,17.68,19.83L37,147.27Z"/><path class="cls-9" d="M28.26,97.17l-11.39-21"/><path class="cls-9" d="M20.8,100.58,8.39,81"/><path class="cls-9" d="M11.94,104.34,4.84,92.48"/><path class="cls-9" d="M31.07,115.68c.06-7.28,4.43-16.09,4.43-16.09"/><path class="cls-1" d="M123.47,219.43,54.91,128.12a2.8,2.8,0,0,0-3.7-.58l-18,11.87a4.16,4.16,0,0,0-1.7,2.46,4.12,4.12,0,0,0,.38,3L87.07,246.52Z"/><path class="cls-1" d="M106.81,258a23,23,0,1,0-23-23A23,23,0,0,0,106.81,258Z"/><path class="cls-5" d="M202.75,116.93s-33.48,10.64-40.08,13.41-7,13.81-7.49,21.64c-.3,5.49,5.89,95.55,6.29,147.71.09,11.15-2,18.22-3.32,24.41s0,9.57,0,9.57L301.59,335s-4.3-181.24-5.18-187.68,6-12-1.46-15.25l-54.78-15.09Z"/><path class="cls-1" d="M184.75,122.74s5.47,25,9.05,45,4.67,185.64,4.67,185.64-41.92-8.15-47.59-17.78,5.25-52.89,6.11-92.2-7.43-100.32,1.26-110.9C158.25,132.51,160.48,130.3,184.75,122.74Z"/><path class="cls-1" d="M255.2,121.13s-19.89,41.44-18.67,54.07,1.28,120.33,0,142.81a218.57,218.57,0,0,1-6.23,40.54s54.25,3.85,75.22-2.72c0,0,10-62.65,3.42-85s-11.52-138.72-11.52-138.72Z"/><path class="cls-8" d="M269.87,176.82s2,75.09,1.62,100.12c-.27,15.6-18.1,22.21-18.16,31.24,0,5.34,14.09-.92,17.89,4.61s-2.7,22.82-2.7,22.82l33.07-.66,13.24-64.27L286.93,173Z"/><path class="cls-2" d="M203.44,100.19l-3.11,35s-.82,5.43,8.62,7.15c7.49,1.37,23.07-7.44,26.59-10.34,7.82-6.45,8.54-10.36,7.71-13.35-1.18-4.28-5.05-34.46-5.05-34.46Z"/><path class="cls-3" d="M201.4,128.83l1.91-21.57L220,99Z"/><path class="cls-2" d="M184.92,34S178.53,62.54,177.68,82c-.86,19.64,6.17,23.38,14.87,24.85,6.86,1.16,17.54,1.24,24.26-2.11,12.24-6.12,32.35-21,35-23.84,4.07-4.45,3.79-24.34-11.77-29.25C228.71,48.09,199.85,17.72,184.92,34Z"/><path class="cls-10" d="M185,37c9.28,3.64,26.75,1.25,36.35,4.36s.86,6.42,1.28,15.68c.27,6,.73,17.46,4.41,17.31s5.84-13.17,13.6-12.67S252,65.5,251.87,70.46,246.13,79.73,241.73,82c-5.51,2.85-7.78,1.66-7.78,1.66s6.2,22.82,7.13,21.91c0,0,6.69-3.77,7.89-10.37,0,0,8.88-1.93,6.91-10.8,0,0,5.53-1.77,2.91-6.91,0,0,14.27-9.6,6.83-21.35,0,0,6.78-6.76-1.31-9.61,0,0,10.71-15.66-4.53-19,0,0,1-7.38-6-7.1,0,0-3-12.68-18.28-7.67a12.61,12.61,0,0,0-8.38-11.52c-8.62-3.47-14.24,1.31-14.24,1.31s-9-7.38-13.82,3.44c0,0-6.84-3.5-12,.22s-2.64,11.48-2.64,11.48-5.87-1.38-8,3.49c-3,6.85,1.23,9.34,1.23,9.34s-9.57,11.31,3.88,22Z"/><path class="cls-11" d="M208.34,65.23c.51-2.32-.31-4.46-1.83-4.79s-3.15,1.28-3.66,3.59.32,4.45,1.83,4.78S207.83,67.54,208.34,65.23Z"/><path class="cls-11" d="M187.49,60.53c.51-2.31-.31-4.45-1.82-4.78S182.51,57,182,59.33s.31,4.46,1.83,4.79S187,62.85,187.49,60.53Z"/><path class="cls-9" d="M191.62,66.67s2.58,5-1.16,5.06c-3.57,0-5.65,2-2.05,5.09"/><path class="cls-3" d="M189,81.43h0c2.21.16,6.64.48,9.58.74h0a.5.5,0,0,1,.24.09.46.46,0,0,1,.19.45.44.44,0,0,1-.1.22,18.87,18.87,0,0,1-2.44,2.3,8.36,8.36,0,0,1-3,1.57,3,3,0,0,1-2.69-.54A7.88,7.88,0,0,1,188.6,82V82a.32.32,0,0,1,0-.19.34.34,0,0,1,.07-.19.33.33,0,0,1,.15-.11A.34.34,0,0,1,189,81.43Z"/><path class="cls-11" d="M215.6,57.61l-.2.42A2.58,2.58,0,0,1,214,59.45a2.54,2.54,0,0,1-2,0L201.19,55a2.29,2.29,0,0,1-1.23-1.1,2.22,2.22,0,0,1-.17-1.64,2.37,2.37,0,0,1,.43-.94,2.47,2.47,0,0,1,1.77-1,2.57,2.57,0,0,1,1,.13l11.07,4.08a2.38,2.38,0,0,1,.82.46,2.44,2.44,0,0,1,.58.74,2.29,2.29,0,0,1,.11,1.85Z"/><path class="cls-11" d="M179,47.49l11.77-.79a2.51,2.51,0,0,1,1,.16,2.49,2.49,0,0,1,1.43,1.44,2.58,2.58,0,0,1,.15,1,2.28,2.28,0,0,1-2.12,2.22l-11.69,1.26a2.6,2.6,0,0,1-2.79-2.36l-.08-.46a2.27,2.27,0,0,1,.14-.93,2.18,2.18,0,0,1,.49-.81,2.32,2.32,0,0,1,.76-.55A2.42,2.42,0,0,1,179,47.49Z"/><path class="cls-1" d="M298.49,150.09c-14.77-13.47-19.13-5.21-23.4-4.14,0,0-14.24,5.06-11.11,17.28,3.3,12.94,38.77,97,38.77,97l44.76-10.59-4.06-11.72-8.37-24.15-8.93-25.82-.92-3.09-10.85-34.11S306.19,157.32,298.49,150.09Z"/><path class="cls-1" d="M305.77,176.24a25.91,25.91,0,1,0-36.53-2.83A25.9,25.9,0,0,0,305.77,176.24Z"/><path class="cls-1" d="M302.41,248.41,262.82,355.52a2.82,2.82,0,0,0,.1,2,2.85,2.85,0,0,0,1.42,1.42l19.71,8.66a4.16,4.16,0,0,0,5.27-1.83L344.9,264.33Z"/><path class="cls-1" d="M324.55,276.92a23,23,0,1,0-23-23A23,23,0,0,0,324.55,276.92Z"/></g></g></svg>